<svg width="52" height="49" viewBox="0 0 52 49" fill="none" xmlns="http://www.w3.org/2000/svg">
<rect y="0.398926" width="48" height="48" rx="8" fill="#F5F7FA"/>
<g clip-path="url(#clip0_22_771)">
<path d="M12.3431 14.2457C10.3124 14.2457 8.36487 15.0524 6.92893 16.4884L2.24264 21.1747C0.8067 22.6106 0 24.5581 0 26.5889C0 30.8177 3.42809 34.2457 7.65687 34.2457C9.6876 34.2457 11.6351 33.439 13.0711 32.0031L16.3126 28.7615C16.3126 28.7615 16.3127 28.7616 16.3126 28.7615L25.7573 19.3168C26.4431 18.631 27.3733 18.2457 28.3431 18.2457C29.9669 18.2457 31.3435 19.304 31.8207 20.7684L34.8015 17.7877C33.4417 15.658 31.0573 14.2457 28.3431 14.2457C26.3124 14.2457 24.3649 15.0524 22.9289 16.4884L10.2427 29.1747C9.55687 29.8605 8.62673 30.2457 7.65687 30.2457C5.63723 30.2457 4 28.6085 4 26.5889C4 25.619 4.38527 24.6889 5.07107 24.0031L9.75733 19.3168C10.4431 18.631 11.3733 18.2457 12.3431 18.2457C13.9669 18.2457 15.3435 19.304 15.8207 20.7685L18.8015 17.7878C17.4417 15.658 15.0574 14.2457 12.3431 14.2457Z" fill="#394149"/>
<path d="M26.2427 29.1747C25.5569 29.8605 24.6268 30.2457 23.6569 30.2457C22.0334 30.2457 20.6569 29.1877 20.1795 27.7235L17.1989 30.7042C18.5587 32.8337 20.9429 34.2457 23.6569 34.2457C25.6877 34.2457 27.6352 33.439 29.0711 32.0031L41.7574 19.3168C42.4432 18.631 43.3733 18.2457 44.3432 18.2457C46.3629 18.2457 48 19.883 48 21.9026C48 22.8725 47.6148 23.8026 46.929 24.4884L42.2427 29.1747C41.5569 29.8605 40.6268 30.2457 39.6569 30.2457C38.0332 30.2457 36.6567 29.1875 36.1794 27.7232L33.1987 30.7039C34.5585 32.8336 36.9428 34.2457 39.6569 34.2457C41.6876 34.2457 43.6352 33.439 45.0711 32.0031L49.7574 27.3168C51.1933 25.8809 52 23.9333 52 21.9026C52 17.6738 48.572 14.2457 44.3432 14.2457C42.3125 14.2457 40.3649 15.0524 38.929 16.4884L26.2427 29.1747Z" fill="#394149"/>
</g>
<defs>
<clipPath id="clip0_22_771">
<rect width="52" height="20" fill="white" transform="translate(0 14.2457)"/>
</clipPath>
</defs>
</svg>
