<svg width="55" height="49" viewBox="0 0 55 49" fill="none" xmlns="http://www.w3.org/2000/svg">
<rect y="0.398926" width="48" height="48" rx="8" fill="#F5F7FA"/>
<g clip-path="url(#clip0_22_768)">
<path d="M54.9957 19.9154C55.0015 19.8737 55.0015 19.8315 54.9957 19.7898C55.0011 19.7559 55.0011 19.7212 54.9957 19.6872L54.5883 16.7545C54.5295 16.4036 54.3723 16.0757 54.1344 15.8074L54.0645 15.7275L53.9365 15.602L46.8829 9.6454L47.0808 9.83941C46.9189 9.64952 46.7157 9.49764 46.4861 9.39495C46.2565 9.29226 46.0062 9.24137 45.7539 9.24603H43.6122C43.2639 9.23926 42.9236 9.34781 42.6461 9.55413C42.3547 9.34906 42.0038 9.24106 41.6451 9.24603H39.5034C39.2225 9.24156 38.9454 9.3099 38.7001 9.44416C38.4549 9.57841 38.2501 9.77381 38.1067 10.0106C37.8855 10.3487 37.8023 10.7561 37.8738 11.1517L38.1416 13.0003C37.9642 12.9017 37.7635 12.8505 37.5596 12.8519H27.1887C26.8166 12.8542 26.4531 12.9611 26.1411 13.16C25.8395 13.3451 25.5973 13.6102 25.4428 13.9246L24.6396 13.2513C24.3235 12.9646 23.9063 12.8092 23.4757 12.8177H7.20353C6.83012 12.8244 6.46501 12.9266 6.14436 13.1144C5.70569 13.3661 5.38421 13.7754 5.24809 14.2555L0.0801167 31.2009C-0.0164452 31.4802 -0.0259442 31.7813 0.0528362 32.0658C0.131617 32.3503 0.295109 32.6055 0.522426 32.7985C0.581658 32.8477 0.643851 32.8935 0.708664 32.9354C0.708664 32.9354 0.603891 32.8669 0.545692 32.8099L7.59931 38.7779C7.89769 39.0472 8.28781 39.1977 8.69336 39.2001H25.0936C25.4681 39.1905 25.8335 39.0843 26.1528 38.892C26.3334 38.7952 26.495 38.6677 26.63 38.5154L26.6882 38.4355L26.7813 38.3214L26.8512 38.1959L27.6194 38.8464C27.9135 39.105 28.2951 39.2472 28.6902 39.2457H45.1253C45.4994 39.2335 45.8641 39.1275 46.1845 38.9376C46.361 38.835 46.5217 38.7081 46.6618 38.5611L46.7199 38.4812L46.813 38.3671C46.8625 38.2949 46.9055 38.2185 46.941 38.1388C46.9791 38.0697 47.0103 37.9971 47.0342 37.9221L51.7482 22.4487V22.3117C51.754 22.2586 51.754 22.2051 51.7482 22.152V22.0493C51.7539 22.0152 51.7539 21.9806 51.7482 21.9465C51.7535 21.8744 51.7535 21.8019 51.7482 21.7297H53.2614C53.393 21.7416 53.5255 21.7416 53.6571 21.7297H53.7619C53.8471 21.7048 53.9291 21.6703 54.0063 21.627H54.1227L54.3322 21.4673L54.4253 21.3988L54.5883 21.1934V21.125L54.7047 20.931C54.6982 20.8932 54.6982 20.8546 54.7047 20.8169C54.6985 20.7984 54.6985 20.7783 54.7047 20.7598C54.7294 20.6929 54.7489 20.6242 54.7629 20.5544C54.7575 20.5319 54.7575 20.5084 54.7629 20.4859C54.7572 20.4519 54.7572 20.4172 54.7629 20.3832C54.7629 20.3832 54.9957 19.9382 54.9957 19.9154Z" fill="black"/>
<path d="M23.9529 14.1186C24.0147 14.1734 24.0579 14.2454 24.0766 14.325C24.0954 14.4045 24.0887 14.4878 24.0577 14.5636L18.9014 31.4976C18.8365 31.6825 18.7036 31.8371 18.5289 31.9313C18.3868 32.0245 18.2222 32.0796 18.0517 32.091H1.66316C1.5232 32.0844 1.39061 32.0276 1.29069 31.9313C1.23125 31.8774 1.18954 31.8073 1.17088 31.7301C1.15221 31.6529 1.15747 31.572 1.18594 31.4976L6.35391 14.5636C6.41346 14.3764 6.54212 14.2177 6.71474 14.1186C6.85924 14.032 7.023 13.9811 7.19196 13.9702H23.5805C23.7193 13.9715 23.8525 14.0246 23.9529 14.1186ZM15.3978 28.0857L18.4823 17.9755H9.84581L6.77292 28.0857H15.3978ZM39.5965 14.2897C39.6525 14.3534 39.7223 14.404 39.801 14.4375C39.8796 14.4711 39.9648 14.4869 40.0505 14.4837H42.1805C42.2617 14.4845 42.3416 14.465 42.4129 14.4271C42.4842 14.3891 42.5444 14.334 42.5879 14.2669C42.6257 14.2145 42.6525 14.1552 42.6665 14.0924C42.6804 14.0297 42.6814 13.9649 42.6694 13.9018L42.2504 10.8892C42.2105 10.7498 42.1388 10.6211 42.0409 10.5127C41.9849 10.449 41.9151 10.3984 41.8365 10.3649C41.7579 10.3313 41.6726 10.3155 41.5869 10.3187H39.4569C39.3758 10.3179 39.2958 10.3374 39.2245 10.3753C39.1532 10.4133 39.093 10.4684 39.0495 10.5355C38.968 10.6953 38.9331 10.7979 38.968 10.8892L39.3987 13.9018C39.4208 14.0484 39.4901 14.1844 39.5965 14.2897ZM46.3592 10.8664C46.3192 10.727 46.2476 10.5982 46.1496 10.4898C46.0961 10.4264 46.0283 10.3759 45.9516 10.3422C45.8749 10.3086 45.7913 10.2927 45.7073 10.2959H43.5656C43.4859 10.2936 43.407 10.3126 43.3373 10.3508C43.2676 10.3889 43.2098 10.4449 43.1699 10.5127C43.0925 10.6139 43.0589 10.7411 43.0768 10.8664L43.5074 13.8789C43.5345 14.0241 43.6031 14.1587 43.7053 14.2669C43.7622 14.3294 43.8323 14.379 43.9107 14.4125C43.989 14.446 44.0738 14.4625 44.1592 14.4609H46.301C46.3806 14.4619 46.4589 14.4424 46.5284 14.4044C46.5979 14.3663 46.6559 14.3111 46.6967 14.2441C46.7372 14.193 46.7655 14.1337 46.7796 14.0706C46.7937 14.0074 46.7932 13.9419 46.7782 13.8789L46.3592 10.8664ZM37.7226 15.4308L37.513 13.9474H27.1888C27.0267 13.9562 26.8698 14.0074 26.7348 14.0957C26.6491 14.1416 26.5744 14.2051 26.5162 14.2819C26.458 14.3588 26.4174 14.4471 26.3973 14.5408L25.5359 17.3707C25.5016 17.4414 25.4898 17.5208 25.5023 17.5982C25.5148 17.6756 25.5508 17.7474 25.6058 17.8044C25.7039 17.8948 25.832 17.9475 25.9666 17.9527H38.5141L35.4296 28.0629H22.917C22.7557 28.0665 22.5986 28.1139 22.4631 28.1998C22.2985 28.3023 22.1783 28.4608 22.1256 28.6449L21.2526 31.4748C21.2241 31.5474 21.2166 31.6263 21.231 31.7028C21.2454 31.7794 21.281 31.8505 21.334 31.9084C21.4291 32.0049 21.5582 32.0621 21.6949 32.0681H38.1299C38.2999 32.0538 38.4638 31.999 38.6071 31.9084C38.779 31.8138 38.908 31.6589 38.968 31.4748L43.6936 16.0014H38.3744C38.29 16.003 38.2062 15.9877 38.1281 15.9563C38.05 15.9249 37.9794 15.8781 37.9205 15.8188C37.8242 15.7153 37.7562 15.5898 37.7226 15.4537V15.4308Z" fill="white"/>
</g>
<defs>
<clipPath id="clip0_22_768">
<rect width="55" height="30" fill="white" transform="translate(0 9.24573)"/>
</clipPath>
</defs>
</svg>
