<svg width="48" height="49" viewBox="0 0 48 49" fill="none" xmlns="http://www.w3.org/2000/svg">
<rect y="0.398926" width="48" height="48" rx="8" fill="#F5F7FA"/>
<g clip-path="url(#clip0_22_770)">
<path d="M38.4375 12.0895C38.4375 12.5555 38.8199 12.9332 39.2917 12.9332H40.1458C40.6176 12.9332 41 12.5555 41 12.0895C41 11.6235 40.6176 11.2457 40.1458 11.2457H39.2917C38.8199 11.2457 38.4375 11.6235 38.4375 12.0895Z" fill="#212326"/>
<path d="M13.6667 38.2457H17.8161L16.6081 37.0525C16.2877 36.736 15.8532 36.5582 15.4001 36.5582H13.6667C7.06225 36.5582 1.70833 31.2696 1.70833 24.7457C1.70833 18.2219 7.06225 12.9332 13.6667 12.9332H27.3333C33.9378 12.9332 39.2917 18.2219 39.2917 24.7457C39.2917 31.2696 33.9378 36.5582 27.3333 36.5582H22.2209C21.5413 36.5582 20.8895 36.2915 20.4089 35.8169L18.9937 34.4189C18.1928 33.6277 17.1064 33.1832 15.9737 33.1832H13.6667C8.94921 33.1832 5.125 29.4057 5.125 24.7457C5.125 20.0858 8.94921 16.3082 13.6667 16.3082H27.3333C32.0508 16.3082 35.875 20.0858 35.875 24.7457C35.875 29.4057 32.0508 33.1832 27.3333 33.1832H24.0507C23.371 33.1832 22.7193 32.9165 22.2387 32.4419L20.8234 31.0439C20.0225 30.2527 18.9362 29.8082 17.8035 29.8082H13.6667C10.8362 29.8082 8.54167 27.5416 8.54167 24.7457C8.54167 21.9498 10.8362 19.6832 13.6667 19.6832H27.3333C30.1638 19.6832 32.4583 21.9498 32.4583 24.7457C32.4583 27.5076 30.2194 29.7529 27.4367 29.8072L27.4361 29.8082H26.1861C25.5064 29.8082 24.8547 29.5415 24.3741 29.0669L22.9588 27.6689C22.3017 27.0197 21.4524 26.6039 20.5429 26.4756L20.5 26.4332H13.6667C12.7232 26.4332 11.9583 25.6777 11.9583 24.7457C11.9583 23.8138 12.7232 23.0582 13.6667 23.0582H27.3333C28.2768 23.0582 29.0417 23.8138 29.0417 24.7457C29.0417 25.6777 28.2768 26.4332 27.3333 26.4332H23.9167L25.1247 27.6265C25.445 27.9429 25.8795 28.1207 26.3326 28.1207H27.3333C29.2203 28.1207 30.75 26.6097 30.75 24.7457C30.75 22.8818 29.2203 21.3707 27.3333 21.3707H13.6667C11.7797 21.3707 10.25 22.8818 10.25 24.7457C10.25 26.6097 11.7797 28.1207 13.6667 28.1207H19.9389C20.6186 28.1207 21.2703 28.3874 21.7509 28.8621L23.1662 30.2601C23.9671 31.0512 25.0534 31.4957 26.1861 31.4957H27.7604V31.4828C31.3354 31.265 34.1667 28.3319 34.1667 24.7457C34.1667 21.0178 31.1072 17.9957 27.3333 17.9957H13.6667C9.89275 17.9957 6.83333 21.0178 6.83333 24.7457C6.83333 28.4737 9.89275 31.4957 13.6667 31.4957H17.8035C18.4831 31.4957 19.1349 31.7624 19.6155 32.2371L21.0307 33.6351C21.8317 34.4262 22.918 34.8707 24.0507 34.8707H27.3333C32.9943 34.8707 37.5833 30.3376 37.5833 24.7457C37.5833 19.1538 32.9943 14.6207 27.3333 14.6207H13.6667C8.00573 14.6207 3.41667 19.1538 3.41667 24.7457C3.41667 30.3376 8.00573 34.8707 13.6667 34.8707H15.9737C16.6534 34.8707 17.3051 35.1374 17.7857 35.6121L19.201 37.0101C20.0019 37.8012 21.0882 38.2457 22.2209 38.2457H27.3333C34.8812 38.2457 41 32.2016 41 24.7457C41 17.2899 34.8812 11.2457 27.3333 11.2457L13.6667 11.2457C6.11877 11.2457 -6.59857e-07 17.2899 0 24.7457C6.59857e-07 32.2016 6.11878 38.2457 13.6667 38.2457Z" fill="#212326"/>
</g>
<defs>
<clipPath id="clip0_22_770">
<rect width="41" height="27" fill="white" transform="translate(0 11.2457)"/>
</clipPath>
</defs>
</svg>
