<svg width="48" height="49" viewBox="0 0 48 49" fill="none" xmlns="http://www.w3.org/2000/svg">
<rect y="0.398926" width="48" height="48" rx="8" fill="#F5F7FA"/>
<g clip-path="url(#clip0_22_767)">
<path fill-rule="evenodd" clip-rule="evenodd" d="M10.0981 14.3603L0.112305 24.2457C2.10964 26.223 4.39129 27.8894 6.87894 29.1931C7.56655 30.9987 8.64433 32.692 10.1123 34.1452C15.6352 39.6125 24.5895 39.6125 30.1123 34.1452C31.5803 32.692 32.6581 30.9987 33.3457 29.193C35.8333 27.8894 38.115 26.223 40.1123 24.2457L30.1346 14.3684C30.1272 14.361 30.1198 14.3536 30.1123 14.3462C24.5895 8.87889 15.6352 8.87889 10.1123 14.3462C10.1076 14.3509 10.1028 14.3556 10.0981 14.3603ZM29.1568 30.9766C26.2468 31.9488 23.192 32.4467 20.1123 32.4467C17.0326 32.4467 13.9779 31.9488 11.0679 30.9766C11.3832 31.3907 11.7313 31.7881 12.1123 32.1653C16.5306 36.5392 23.694 36.5392 28.1123 32.1653C28.4933 31.7881 28.8415 31.3907 29.1568 30.9766ZM12.3174 16.1281C13.0677 16.6188 13.8655 17.0387 14.7003 17.3811C16.4161 18.0846 18.2551 18.4468 20.1123 18.4468C21.9695 18.4468 23.8085 18.0846 25.5243 17.3811C26.3591 17.0387 27.1569 16.6188 27.9073 16.1281C23.5441 12.0183 16.6805 12.0183 12.3174 16.1281Z" fill="#3B4158"/>
</g>
<defs>
<clipPath id="clip0_22_767">
<rect width="40" height="28" fill="white" transform="translate(0.112305 10.2457)"/>
</clipPath>
</defs>
</svg>
