<svg width="48" height="49" viewBox="0 0 48 49" fill="none" xmlns="http://www.w3.org/2000/svg">
<rect y="0.398926" width="48" height="48" rx="8" fill="#E8F5E9"/>
<g clip-path="url(#clip0_22_772)">
<path fill-rule="evenodd" clip-rule="evenodd" d="M10.3533 0.593445C15.8761 0.593445 20.3533 5.07059 20.3533 10.5934V0.593445H30.3533C35.8761 0.593445 40.3533 5.07059 40.3533 10.5934C40.3533 16.1162 35.8761 20.5934 30.3533 20.5934C35.8761 20.5934 40.3533 25.0706 40.3533 30.5934C40.3533 33.3357 39.2494 35.8202 37.4618 37.6268L37.4244 37.6645L37.3912 37.6975C35.5842 39.4877 33.0979 40.5934 30.3533 40.5934C27.6274 40.5934 25.1562 39.5027 23.3523 37.7339C23.3289 37.7109 23.3055 37.6877 23.2822 37.6645C23.2603 37.6426 23.2385 37.6206 23.2168 37.5985C21.4457 35.7943 20.3533 33.3214 20.3533 30.5934C20.3533 36.1162 15.8761 40.5934 10.3533 40.5934C4.83048 40.5934 0.353333 36.1162 0.353333 30.5934V20.5934H10.3533C4.83048 20.5934 0.353333 16.1162 0.353333 10.5934C0.353333 5.07059 4.83048 0.593445 10.3533 0.593445ZM18.3533 10.5934C18.3533 15.0117 14.7716 18.5934 10.3533 18.5934V2.59344C14.7716 2.59344 18.3533 6.17516 18.3533 10.5934ZM38.3533 30.5934C38.3533 26.1751 34.7716 22.5934 30.3533 22.5934C25.935 22.5934 22.3533 26.1751 22.3533 30.5934H38.3533ZM2.35333 22.5934V30.5934C2.35333 35.0117 5.93505 38.5934 10.3533 38.5934C14.7716 38.5934 18.3533 35.0117 18.3533 30.5934V22.5934H2.35333ZM22.3533 18.5934V2.59344H30.3533C34.7716 2.59344 38.3533 6.17516 38.3533 10.5934C38.3533 15.0117 34.7716 18.5934 30.3533 18.5934H22.3533Z" fill="#5417D7"/>
</g>
<defs>
<clipPath id="clip0_22_772">
<rect width="40" height="40" fill="white" transform="translate(0.353333 0.593445)"/>
</clipPath>
</defs>
</svg>
