<svg width="48" height="49" viewBox="0 0 48 49" fill="none" xmlns="http://www.w3.org/2000/svg">
<rect y="0.398926" width="48" height="48" rx="8" fill="#F5F7FA"/>
<g clip-path="url(#clip0_22_769)">
<path d="M43.9965 13.8104C43.9965 13.8442 43.9965 13.8865 43.9877 13.9119C43.9437 14.2416 43.9437 14.5712 43.9701 14.9094C43.9877 14.9939 44.0053 15.0785 44.0758 15.1461C44.1903 15.2729 44.3664 15.2475 44.4369 15.0954C44.4722 15.0193 44.4722 14.9432 44.4545 14.8671C44.3664 14.5459 44.3488 14.2077 44.34 13.8781C44.34 13.8612 44.34 13.8358 44.34 13.8104C44.4369 13.802 44.525 13.7935 44.6042 13.7935C44.6659 13.7851 44.7188 13.7766 44.7628 13.7513C44.8949 13.6836 44.8949 13.5399 44.754 13.4723C44.7011 13.4469 44.6307 13.4385 44.569 13.4385C44.3488 13.4469 44.1287 13.4469 43.9084 13.4469C43.8292 13.4469 43.7499 13.4554 43.6706 13.4638C43.6266 13.4723 43.5737 13.4723 43.5385 13.4977C43.4768 13.523 43.4417 13.5653 43.4417 13.6245C43.4504 13.6836 43.4768 13.7174 43.5385 13.7428C43.5737 13.7682 43.6178 13.7766 43.6618 13.7766C43.7675 13.7851 43.882 13.802 43.9965 13.8104ZM46.4186 14.1993C46.4186 14.2077 46.4274 14.2162 46.4274 14.2162C46.4627 14.4444 46.4979 14.6642 46.5243 14.884C46.5332 14.9601 46.542 15.0277 46.5948 15.0869C46.7093 15.2306 46.8855 15.2137 46.9647 15.0615C47 14.9855 47.0087 14.9094 46.9912 14.8248C46.9383 14.5712 46.9119 14.3176 46.859 14.0725C46.8238 13.9203 46.7798 13.7766 46.7357 13.6414C46.7093 13.5568 46.6477 13.4976 46.542 13.4892C46.4363 13.4723 46.357 13.523 46.3129 13.5991C46.2601 13.6667 46.2161 13.7343 46.1808 13.8104C46.1192 13.9457 46.0663 14.0809 45.9959 14.2077C45.987 14.2416 45.9782 14.2669 45.9606 14.2923C45.9519 14.2754 45.9431 14.2669 45.9431 14.2669C45.8285 14.0556 45.7228 13.8442 45.6083 13.6414C45.5907 13.6245 45.5819 13.6075 45.5731 13.5906C45.5203 13.5146 45.4586 13.4723 45.3617 13.4723C45.2736 13.4807 45.2031 13.5315 45.1592 13.6075C45.1415 13.6414 45.1415 13.6667 45.1327 13.7005C45.0975 13.971 45.0534 14.2416 45.0182 14.5121C45.0006 14.6642 44.9918 14.8164 44.9918 14.9686C44.983 15.0024 44.9918 15.0446 45.0094 15.0785C45.027 15.1461 45.0799 15.1883 45.1503 15.1968C45.2384 15.2053 45.3 15.1799 45.3265 15.1123C45.3529 15.0615 45.3617 15.0193 45.3705 14.977C45.4058 14.8248 45.4322 14.6811 45.4586 14.5374C45.4762 14.4529 45.485 14.3853 45.5115 14.2923C45.5291 14.3261 45.5466 14.3515 45.5643 14.3768C45.6435 14.4783 45.7228 14.5797 45.8197 14.6642C45.9166 14.7319 45.9959 14.7234 46.0751 14.6473C46.0928 14.6304 46.1016 14.622 46.1192 14.6051C46.1985 14.4867 46.2954 14.3684 46.3746 14.25C46.3922 14.2331 46.401 14.2162 46.4186 14.1993Z" fill="#3A3B7B"/>
<path d="M26.1244 13.9765C26.0632 14.1372 26.0515 14.2529 26.0798 14.3491C26.111 14.4799 26.192 14.5228 26.302 14.4895C27.3366 14.244 29.6051 14.9409 30.445 15.1351C30.6431 15.1759 30.8042 14.9305 30.6691 14.7105C30.4718 14.4974 28.2043 13.5851 27.3391 13.5354C26.9999 13.517 26.3936 13.4335 26.1244 13.9765Z" fill="#3A3B7B"/>
<path d="M34.9904 11.0233C35.1006 11.0844 35.1622 11.1427 35.1927 11.2078C35.238 11.2932 35.2141 11.3523 35.1379 11.3824C34.4541 11.7027 33.5441 13.0818 33.1768 13.5575C33.0877 13.6669 32.8823 13.6033 32.8513 13.4234C32.8577 13.2199 33.6643 11.7233 34.1145 11.3157C34.2915 11.1565 34.5837 10.8442 34.9904 11.0233Z" fill="#3A3B7B"/>
<path d="M29.5445 10.3445C29.6769 10.2486 29.8146 10.2151 29.8849 10.2773C30.9167 11.1242 31.4638 12.4654 31.8026 13.6931C31.8154 13.7218 31.8162 13.7628 31.806 13.8056C31.8017 13.8422 31.7739 13.8809 31.7296 13.9108C31.6824 13.9438 31.6417 13.9539 31.6225 13.9254C31.1703 13.3351 28.5875 11.0382 29.5445 10.3445Z" fill="#3A3B7B"/>
<path d="M7.69524 25.0275C7.94253 24.8508 8.21137 24.7037 8.49586 24.5896C8.7935 24.5079 9.11075 24.5214 9.39966 24.6282C9.68851 24.735 9.93338 24.9291 10.0971 25.1812C10.2435 25.4327 10.3008 25.7231 10.2604 26.0087C10.2199 26.2941 10.084 26.5593 9.87289 26.7642C9.70926 26.9303 9.52348 27.0749 9.3205 27.1945C8.41582 27.7554 7.50308 28.2856 6.59039 28.8466C6.40363 28.987 6.20551 29.1129 5.99793 29.2231C5.68217 29.3742 5.32132 29.4147 4.97776 29.3375C4.6342 29.2604 4.32955 29.0704 4.11648 28.8005C3.95719 28.6094 3.82277 28.4004 3.71616 28.178C2.8515 26.4338 1.95481 24.6971 1.12217 22.9221C0.737866 22.1537 0.425627 21.27 0.121393 20.4171C-0.010233 20.1692 -0.0359366 19.8819 0.0497553 19.6162C0.135447 19.3504 0.325774 19.1273 0.580249 18.9941C0.834727 18.861 1.13327 18.8284 1.4124 18.9033C1.69152 18.9782 1.92921 19.1546 2.0749 19.3951C2.52271 19.9662 2.91911 20.5729 3.25981 21.2086C4.12448 22.7454 4.94912 24.2822 5.78176 25.7729C5.83024 25.8553 5.8837 25.9348 5.94188 26.0111C6.56859 25.7582 7.15803 25.4275 7.69524 25.0275Z" fill="#3A3B7B"/>
<path d="M16.6354 24.4915C14.6579 26.7121 11.3433 26.1512 9.67801 23.2927C8.49308 21.2641 8.28493 17.9138 10.8629 15.8007C11.4135 15.3583 12.0717 15.0569 12.7764 14.9247C13.6404 14.8058 14.5214 14.9521 15.2936 15.3426C16.0657 15.7332 16.6895 16.348 17.0757 17.0993C18.4848 19.5582 18.2847 22.6933 16.6354 24.4915ZM15.8347 19.3123C15.6247 18.7081 15.2032 18.1922 14.6418 17.8523C14.3242 17.635 13.9382 17.5294 13.5489 17.5531C13.1595 17.5769 12.7906 17.7287 12.5042 17.9829C11.3593 18.9589 11.1191 21.2718 11.9517 22.6473C12.0579 22.8715 12.2137 23.0709 12.4085 23.2313C12.6033 23.3917 12.8323 23.5093 13.0793 23.5759C13.3264 23.6426 13.5857 23.6565 13.839 23.6169C14.0923 23.5772 14.3335 23.485 14.5458 23.3465C15.1664 22.8847 15.6217 22.2488 15.8484 21.5272C16.0751 20.8056 16.062 20.0341 15.8108 19.32L15.8347 19.3123Z" fill="#3A3B7B"/>
<path d="M24.7055 20.2805C24.5031 20.3223 24.294 20.3248 24.0904 20.2878C23.887 20.2509 23.6932 20.1753 23.5207 20.0654C23.3697 19.9825 23.2397 19.8685 23.14 19.7316C23.0405 19.5947 22.9737 19.4384 22.9446 19.2738C22.9155 19.1092 22.9248 18.9405 22.9718 18.7797C23.0188 18.619 23.1024 18.4702 23.2164 18.3441C23.4152 18.0908 23.6973 17.9094 24.0171 17.8293C24.8518 17.5968 25.7112 17.455 26.579 17.4067C26.7697 17.3854 26.9629 17.4009 27.1472 17.4522C27.3316 17.5036 27.5033 17.5898 27.6525 17.7058C27.8016 17.8217 27.9252 17.9651 28.0158 18.1275C28.1064 18.2899 28.1623 18.4681 28.1802 18.6515C28.4304 19.5525 28.4578 20.4972 28.2603 21.4101C27.5398 24.3608 25.0578 25.3751 22.2717 24.43C21.4896 24.1773 20.8039 23.7064 20.3022 23.0776C19.633 22.3203 19.1586 21.4228 18.9171 20.4573C18.7214 19.5975 18.7428 18.7054 18.9797 17.8552C19.2164 17.005 19.6616 16.2215 20.2781 15.5702C20.8632 14.8622 21.6226 14.305 22.4879 13.9488C23.0346 13.6596 23.6744 13.5773 24.2813 13.7183C24.4189 13.7549 24.5439 13.8261 24.6432 13.9246C24.7425 14.0232 24.8125 14.1454 24.846 14.2787C24.8795 14.412 24.8752 14.5514 24.8336 14.6826C24.792 14.8137 24.7147 14.9318 24.6095 15.0246C24.4096 15.1983 24.1924 15.3527 23.961 15.4856C23.2492 15.9207 22.6298 16.4813 22.1356 17.1377C21.8116 17.5625 21.5885 18.0503 21.482 18.5667C21.3755 19.0831 21.3881 19.6156 21.5191 20.1269C21.7007 20.8239 22.1036 21.4496 22.672 21.9172C24.4333 23.4541 26.7231 21.971 26.3228 19.8733C25.7384 20.0116 25.226 20.1576 24.7055 20.2805Z" fill="#3A3B7B"/>
<path d="M35.466 24.6144C32.864 26.1512 29.9017 24.6144 29.2532 21.3871C28.7809 19.0818 29.6776 15.8545 32.816 14.625C33.4838 14.3691 34.208 14.2792 34.9216 14.3638C35.779 14.5144 36.5655 14.9195 37.1702 15.5219C37.7748 16.1244 38.1674 16.8938 38.2922 17.7217C38.8206 20.4649 37.6197 23.3926 35.466 24.6144ZM36.3708 19.4429C36.37 18.8046 36.1347 18.1869 35.7062 17.6987C35.4772 17.3967 35.1461 17.1803 34.7695 17.0864C34.3927 16.9925 33.9938 17.0269 33.6406 17.1838C32.2315 17.7678 31.2388 19.8886 31.5991 21.4486C31.6266 21.6933 31.7094 21.9294 31.8419 22.1403C31.9744 22.3511 32.1532 22.5316 32.366 22.6693C32.5787 22.8068 32.8202 22.8982 33.0736 22.9369C33.327 22.9755 33.5861 22.9606 33.8328 22.8932C34.5776 22.6434 35.2225 22.1767 35.6774 21.5582C36.1325 20.9396 36.3749 20.2001 36.3708 19.4429Z" fill="#3A3B7B"/>
<path d="M40.9235 25.2599C40.8843 25.5411 40.7302 25.7959 40.4952 25.9681C40.2602 26.1403 39.9636 26.2158 39.6706 26.1781C39.3776 26.1404 39.1122 25.9925 38.9328 25.767C38.7533 25.5415 38.6746 25.2568 38.7139 24.9756C38.7531 24.6943 38.9072 24.4396 39.1422 24.2674C39.3772 24.0952 39.6738 24.0196 39.9668 24.0573C40.2598 24.095 40.5252 24.2429 40.7047 24.4684C40.8841 24.6939 40.9629 24.9787 40.9235 25.2599ZM40.227 14.894C40.3793 14.6708 40.6027 14.5008 40.8638 14.4094C41.125 14.318 41.4099 14.3101 41.6761 14.3868C41.9468 14.4518 42.1859 14.6041 42.3535 14.8181C42.5211 15.0321 42.607 15.2949 42.5969 15.5625C42.5616 15.9917 42.4947 16.4179 42.3967 16.838C42.1325 18.2596 41.8763 19.6812 41.5961 21.0874C41.468 21.6483 41.2999 22.1862 41.1157 22.7548C41.0516 22.9326 40.9446 23.0932 40.8035 23.2236C40.7157 23.3216 40.6037 23.3968 40.4776 23.4423C40.3515 23.4877 40.2155 23.5019 40.0822 23.4835C39.949 23.4651 39.8226 23.4148 39.715 23.3371C39.6073 23.2594 39.5219 23.1569 39.4665 23.0392C39.3713 22.8279 39.3196 22.6008 39.3143 22.3706C39.3143 21.4178 39.3143 20.4573 39.3784 19.4967C39.4872 18.126 39.7013 16.7647 40.0189 15.4242C40.0563 15.2446 40.1267 15.0728 40.227 14.917V14.894Z" fill="#3A3B7B"/>
<path fill-rule="evenodd" clip-rule="evenodd" d="M4.31263 31.4347C4.2181 31.6373 4.19218 31.8631 4.23837 32.0804C4.2691 32.3668 4.3366 32.6486 4.43933 32.9192C4.56759 33.2506 4.71111 33.5783 4.88807 33.9822C4.92876 34.0751 4.97129 34.1721 5.01579 34.2742C5.25443 34.8214 5.55386 35.5207 5.95326 36.5327C6.06631 36.8202 6.1667 37.1101 6.26779 37.4019C6.30862 37.5199 6.34961 37.6382 6.39156 37.7567C6.54193 38.1783 6.80067 38.557 7.14364 38.8572C7.28927 39.0221 7.48244 39.1423 7.69904 39.2024C7.91988 39.2637 8.15474 39.2599 8.37323 39.1913C8.59171 39.1227 8.7836 38.9926 8.924 38.8179C9.06164 38.6466 9.14349 38.4401 9.1594 38.2245C9.2487 37.8044 9.21822 37.3688 9.07104 36.9638C8.83745 36.2913 8.57136 35.6179 8.26452 34.9592L8.26311 34.9563C7.75833 33.9257 7.24523 32.9023 6.70784 31.8784L6.70382 31.8712C6.5465 31.6045 6.34206 31.3661 6.09967 31.1666C5.94232 30.9886 5.72526 30.8685 5.48556 30.8271C5.24076 30.7849 4.98827 30.8274 4.77319 30.9473C4.56972 31.0589 4.40843 31.2295 4.31263 31.4347Z" fill="#3A3B7B"/>
<path fill-rule="evenodd" clip-rule="evenodd" d="M12.0224 28.897C11.2309 28.7003 10.4043 28.6716 9.60018 28.8131C8.97737 28.8719 8.36482 29.0098 7.93947 29.2829C7.72314 29.4219 7.54823 29.6004 7.45094 29.8273C7.35311 30.0554 7.34063 30.3163 7.42079 30.6069C7.56717 31.1393 7.75725 31.657 7.94666 32.173L7.97734 32.2566L7.97808 32.2584C8.54839 33.7575 9.12414 35.2514 9.70513 36.7402C9.77288 36.9749 9.86869 37.2012 9.99062 37.4147L9.9929 37.4186C10.154 37.6839 10.3606 37.9211 10.604 38.1203C10.7257 38.2298 10.8762 38.3056 11.0395 38.3395C11.2043 38.3737 11.3757 38.3638 11.535 38.3108C11.6944 38.2579 11.8356 38.1639 11.9431 38.0392C12.049 37.9166 12.1182 37.7688 12.1437 37.6115C12.2487 37.1843 12.2151 36.7365 12.0472 36.3281C11.9948 36.1907 11.9537 36.0502 11.9104 35.9024C11.896 35.8531 11.8814 35.8029 11.8659 35.7519C13.1958 35.2529 14.6109 34.582 15.1085 33.0213C15.3033 32.482 15.3195 31.898 15.1549 31.3493C14.9901 30.8001 14.6521 30.3133 14.1873 29.9559C13.5548 29.4557 12.8159 29.0942 12.0224 28.897ZM9.82847 30.8114C9.85466 30.8041 9.88104 30.7974 9.9075 30.7911C10.7733 30.6605 11.6591 30.8346 12.4019 31.2812C12.7292 31.4997 12.8633 31.7424 12.8863 31.976C12.9101 32.2165 12.8189 32.4771 12.6359 32.7276C12.2901 33.2008 11.6589 33.5796 11.0888 33.6502C10.6732 32.7316 10.2511 31.7758 9.82847 30.8114Z" fill="#3A3B7B"/>
<path d="M17.2991 27.2155C18.2417 26.7977 19.4092 26.7256 20.3228 27.0193C20.5529 27.0837 20.7525 27.2228 20.8876 27.4129C21.0217 27.6019 21.0836 27.8296 21.0629 28.0573C21.0616 28.205 21.0238 28.3504 20.9527 28.4816C20.8803 28.6151 20.7755 28.7299 20.6471 28.8164C20.5187 28.9028 20.3706 28.9584 20.2151 28.9782C20.0596 28.9981 19.9015 28.9818 19.754 28.9306L19.7428 28.9267L19.7322 28.9213C19.6568 28.8834 19.5766 28.8549 19.4937 28.8363L19.4884 28.8352C18.8457 28.6713 18.2395 28.9428 18.0181 29.2764C17.9125 29.4354 17.8994 29.596 17.9873 29.742C18.0815 29.8984 18.3126 30.0739 18.7801 30.199C18.9087 30.2329 19.0405 30.2656 19.1741 30.2988C19.5438 30.3907 19.928 30.4861 20.2995 30.6184L20.3009 30.619C22.0148 31.2448 22.653 32.5411 22.4345 33.7602C22.2184 34.9659 21.1693 36.0632 19.5916 36.322C19.0176 36.4441 18.4201 36.4203 17.8585 36.253C17.2954 36.0851 16.7879 35.7788 16.3863 35.3644L16.3758 35.3536C16.2491 35.1975 16.1638 35.014 16.126 34.8194C16.0912 34.6438 16.1095 34.4622 16.1787 34.2962C16.2474 34.1312 16.3637 33.9884 16.5138 33.8843C16.6723 33.7663 16.8634 33.6955 17.0634 33.6808C17.2628 33.6661 17.4623 33.7076 17.6373 33.8003C17.8121 33.8814 17.9748 33.9848 18.1207 34.1078L18.1235 34.11C18.3817 34.3367 18.6941 34.3957 18.9937 34.341C19.2977 34.2855 19.5835 34.1129 19.7673 33.8839C19.95 33.6563 20.0233 33.3859 19.9363 33.1235C19.8487 32.8591 19.5854 32.5629 19.007 32.3153C18.8558 32.2537 18.699 32.204 18.5359 32.1556C18.492 32.1426 18.4472 32.1296 18.402 32.1164C18.2814 32.0813 18.1573 32.0451 18.0357 32.0052C17.9519 31.9778 17.8687 31.9518 17.7864 31.9261C17.5614 31.8557 17.3421 31.7872 17.131 31.6952C16.6715 31.5451 16.2746 31.2568 15.9992 30.873C15.7227 30.4877 15.5836 30.027 15.6025 29.5595C15.604 28.4204 16.3515 27.6356 17.2991 27.2155Z" fill="#3A3B7B"/>
<path d="M29.2488 27.0942C29.066 27.0085 28.8639 26.9679 28.6607 26.9758C28.4575 26.9839 28.2595 27.0403 28.0848 27.1401C27.9111 27.2393 27.7656 27.3781 27.6614 27.5442C27.5659 27.6842 27.4998 27.8406 27.4668 28.0049C27.4338 28.1691 27.4346 28.3378 27.4691 28.5016C27.5031 28.7121 27.5408 28.9169 27.5781 29.1187C27.6398 29.4528 27.6998 29.7794 27.7394 30.1124L27.7409 30.1208C27.8311 30.643 27.8783 31.1711 27.8825 31.7004L27.8829 31.7079C27.9138 32.2795 27.7108 32.8399 27.3177 33.2703L27.3115 33.2779C27.1836 33.4353 27.0126 33.5553 26.8175 33.6247C26.6225 33.6941 26.4113 33.7101 26.2074 33.6708C26.0035 33.6315 25.815 33.5386 25.663 33.4024C25.511 33.2661 25.4013 33.0915 25.3466 32.899C25.2298 32.4932 25.1622 32.0757 25.145 31.6551L25.3445 28.606C25.3475 28.5662 25.3508 28.5253 25.3543 28.484C25.3619 28.3914 25.3696 28.2971 25.3729 28.2091C25.3776 28.0797 25.3735 27.9465 25.3421 27.8205C25.31 27.6917 25.2488 27.5692 25.1403 27.4649C25.0329 27.3616 24.8878 27.2854 24.7053 27.2335C24.3753 27.1419 24.0963 27.1448 23.8638 27.2395C23.6311 27.3342 23.4717 27.51 23.3589 27.7132C23.247 27.9146 23.1751 28.153 23.1207 28.3919C23.0803 28.5691 23.0479 28.7552 23.0171 28.9323C23.0064 28.9933 22.996 29.0532 22.9855 29.1114L22.9852 29.1131C22.8203 30.0844 22.7712 31.0705 22.8389 32.0524C22.8515 32.5831 22.9668 33.1068 23.179 33.597C23.4183 34.2295 23.8519 34.7774 24.4224 35.1686C24.9941 35.5606 25.6763 35.7765 26.3788 35.7879C27.0812 35.7993 27.7707 35.6056 28.356 35.2325C28.9402 34.8599 29.393 34.326 29.6545 33.7012C30.0202 32.9053 30.192 32.0398 30.1565 31.1706C30.135 30.536 30.0991 29.8966 30.0633 29.2604C30.0457 28.9483 30.0281 28.6369 30.0124 28.3274C30.0045 28.017 29.8979 27.7164 29.7068 27.4659C29.5886 27.3075 29.4312 27.1798 29.2488 27.0942Z" fill="#3A3B7B"/>
<path d="M35.7174 31.8753C35.6988 31.8979 35.6793 31.9213 35.6589 31.9456C35.5102 31.1226 35.3725 30.2997 35.2345 29.4757C35.185 29.18 35.1352 28.8831 35.0852 28.587L35.0796 28.554L35.0613 28.5255C35.0269 28.4718 35.0234 28.4191 35.0234 28.3068V28.2938L35.0214 28.281C34.984 28.049 34.8747 27.8332 34.7077 27.6617C34.5412 27.4906 34.325 27.3716 34.0871 27.3199C33.8496 27.2637 33.6 27.2761 33.3698 27.3556C33.1402 27.4349 32.94 27.5774 32.7943 27.7652C32.6732 27.9094 32.5739 28.0693 32.4995 28.2401C32.3306 28.6081 32.1603 28.9771 31.9895 29.347L31.9865 29.3534C31.5601 30.277 31.1308 31.2068 30.7139 32.1439L30.7127 32.1469C30.4568 32.7545 30.2456 33.3948 30.0351 34.033C29.993 34.1604 29.951 34.2878 29.9086 34.4148C29.8326 34.6162 29.7994 34.8301 29.8108 35.044C29.797 35.2355 29.8447 35.4265 29.9477 35.5912C30.0527 35.7593 30.21 35.8915 30.3974 35.9693C30.596 36.0529 30.8181 36.0706 31.0284 36.0197C31.2383 35.9689 31.4247 35.8527 31.5583 35.6892C31.7288 35.4879 31.8755 35.2682 31.9952 35.0356C32.3483 34.3424 32.6857 33.6407 33.0216 32.942C33.1516 32.6718 33.2779 32.4298 33.4216 32.1662C33.4315 32.1987 33.4416 32.2304 33.452 32.2622C33.6026 32.8985 33.8568 33.5081 34.2052 34.0684C34.2711 34.1871 34.363 34.2909 34.4744 34.3725C34.5872 34.4552 34.7174 34.5132 34.8559 34.5426C34.9944 34.5721 35.138 34.5722 35.2766 34.543C35.415 34.5139 35.5455 34.4558 35.6584 34.3736L35.8818 34.2131L37.6156 32.8114L37.5131 33.4385C37.3724 34.3006 37.2327 35.1554 37.0843 36.0104C36.9872 36.3894 36.9874 36.7853 37.0847 37.1641C37.1269 37.3773 37.2343 37.5736 37.3933 37.728C37.5537 37.8836 37.759 37.9893 37.9827 38.0315C38.2064 38.0736 38.4382 38.0503 38.6479 37.9644C38.8545 37.8798 39.0303 37.7384 39.1532 37.5581C39.4391 37.2177 39.617 36.8056 39.6659 36.3708C39.7395 35.7568 39.8226 35.1344 39.9058 34.5122C40.0016 33.795 40.0974 33.0781 40.1783 32.3749L40.1786 32.3727C40.2565 31.603 40.2942 30.8301 40.2915 30.0567C40.3086 29.8123 40.2452 29.5688 40.1101 29.3607C39.9746 29.1519 39.7738 28.9896 39.5365 28.8967C39.2897 28.789 39.0134 28.7602 38.7483 28.8147C38.4849 28.8687 38.2464 29.002 38.0676 29.195C37.7478 29.4789 37.4478 29.7827 37.1695 30.1044L37.1676 30.1066C36.8638 30.4699 36.562 30.8404 36.2622 31.2085C36.0799 31.4323 35.8982 31.6555 35.7174 31.8753Z" fill="#3A3B7B"/>
</g>
<defs>
<clipPath id="clip0_22_769">
<rect width="47" height="29" fill="white" transform="translate(0 10.2457)"/>
</clipPath>
</defs>
</svg>
