<svg width="16" height="16" viewBox="0 0 16 16" fill="none" xmlns="http://www.w3.org/2000/svg">
<path fill-rule="evenodd" clip-rule="evenodd" d="M8.41167 13.8488L13.8074 9.13357C13.9894 8.97448 14.0444 8.73367 13.9635 8.52541L11.9635 3.37416C11.8807 3.16066 11.6611 3.00098 11.3958 3.00098H4.60424C4.33886 3.00098 4.11935 3.16066 4.03646 3.37416L2.03649 8.52541C1.95563 8.73367 2.01056 8.97448 2.1926 9.13357L7.58833 13.8488C7.82048 14.0517 8.17952 14.0517 8.41167 13.8488ZM6.9303 14.6018C7.53933 15.134 8.46067 15.134 9.0697 14.6018L14.4654 9.88656C14.96 9.4544 15.131 8.76948 14.8957 8.16349L12.8958 3.01223C12.6594 2.40353 12.0623 2.00098 11.3958 2.00098H4.60424C3.93768 2.00098 3.34058 2.40353 3.10425 3.01223L1.10428 8.16349C0.869006 8.76948 1.04005 9.4544 1.53457 9.88656L6.9303 14.6018ZM7.28224 11.5076C7.38091 11.5647 7.50247 11.5647 7.60114 11.5076L10.1149 10.0513C10.2136 9.99416 10.2744 9.88853 10.2744 9.77421L10.2744 9.38829L10.2745 9.38831V7.6938L10.2744 7.68659L10.2744 7.68651L10.2744 7.68574C10.2744 7.6715 10.2734 7.65744 10.2716 7.64362C10.2714 7.64496 10.2713 7.64629 10.2711 7.64763C10.253 7.52472 10.1636 7.42187 10.0408 7.38887L7.57207 6.72514L10.2275 5.18687C10.3082 5.14012 10.3082 5.02359 10.2275 4.97683L8.70258 4.09347C8.60474 4.03679 8.48406 4.03679 8.38622 4.09347L5.8691 5.55164C5.77169 5.60807 5.71172 5.71212 5.71172 5.8247V6.22498V7.91967C5.71172 8.0624 5.80752 8.18736 5.94535 8.22442L8.40046 8.88448L5.76133 10.4133C5.67956 10.4607 5.67956 10.5791 5.76133 10.6265L7.28224 11.5076Z" fill="white"/>
</svg>
