<svg width="17" height="16" viewBox="0 0 17 16" fill="none" xmlns="http://www.w3.org/2000/svg">
<g clip-path="url(#clip0_3682_14873)">
<path d="M8.94169 1C9.22228 1 9.49409 1.03437 9.7495 1.10218C10.0096 1.17124 10.2411 1.25516 10.4575 1.35877C10.6958 1.47438 10.8885 1.5893 11.0475 1.71055C11.2211 1.83892 11.3671 1.97685 11.4814 2.12059C11.7218 2.42756 11.9046 2.76889 12.0258 3.13637C12.1464 3.50229 12.2263 3.83318 12.27 4.14793C12.3202 4.4724 12.3446 4.8096 12.3426 5.15187C12.3927 5.19967 12.4345 5.25775 12.4663 5.32423C12.5139 5.41302 12.5495 5.51229 12.5721 5.61938C12.5922 5.71437 12.5988 5.81823 12.5918 5.93439L12.58 6.05723C12.5591 6.20744 12.526 6.34259 12.4815 6.46066L12.4294 6.58018C12.3549 6.71869 12.2755 6.82432 12.1865 6.90311C12.1176 6.96508 12.0453 7.01396 11.968 7.05047L11.9216 7.21254L11.8658 7.38414C11.8363 7.46014 11.8022 7.53952 11.7641 7.62127L11.7012 7.75086C11.6267 7.88943 11.5472 7.99512 11.4582 8.07394L11.3316 8.18082L11.1416 8.3179L11.0446 8.40184C11.0063 8.44039 10.978 8.48146 10.9558 8.53094C10.936 8.57492 10.9195 8.62323 10.9064 8.67532L10.8885 8.76128C10.8663 8.87397 10.8586 8.99438 10.8657 9.11915C10.872 9.2285 10.9029 9.34565 10.9548 9.45766C10.994 9.54239 11.0527 9.62528 11.1299 9.70506L11.2146 9.78507C11.3333 9.89019 11.5083 9.99078 11.7348 10.0841C11.879 10.1414 12.0333 10.1942 12.1955 10.2419L12.4448 10.3093C12.4874 10.3203 12.5445 10.3385 12.6137 10.3628L12.8554 10.4528L13.1561 10.5719L14.0566 10.9397C14.3238 11.0427 14.5635 11.1718 14.7693 11.3234L14.7803 11.332C14.9609 11.484 15.0959 11.6555 15.1899 11.8528L15.2537 12.0086C15.2919 12.123 15.3224 12.2587 15.3447 12.4135L15.3723 12.639C15.3847 12.6673 15.3909 12.6944 15.394 12.7271L15.3971 12.8492C15.3971 12.9929 15.39 13.1355 15.376 13.2754L15.3492 13.4858C15.322 13.6484 15.2839 13.7825 15.2336 13.8922L15.172 14.0048C15.1102 14.0917 15.0009 14.1629 14.8071 14.2397L14.672 14.2892L14.4424 14.355L14.0457 14.4552L13.6324 14.5472L13.3048 14.6127L12.9373 14.6792L12.5317 14.7445C12.461 14.7552 12.3888 14.7658 12.3151 14.7761L11.8553 14.836C11.7758 14.8455 11.6948 14.8547 11.6125 14.8637L11.1021 14.9133L10.56 14.9536C10.2813 14.9711 9.99137 14.9843 9.69103 14.9921L9.07681 15C8.87209 15 8.66877 14.9976 8.46756 14.9931L7.87096 14.9735L7.29122 14.9431L6.73258 14.9037L6.19926 14.8572L5.69549 14.8054L5.22549 14.7501L4.79351 14.6932L4.40375 14.6366L3.90756 14.556L3.53017 14.4863L3.35162 14.4489C3.2415 14.4243 3.14718 14.4015 3.0661 14.3804L2.86007 14.3217L2.7182 14.2713L2.6252 14.228L2.56574 14.1903C2.41038 14.0764 2.31517 13.8281 2.25762 13.3858C2.22025 13.0961 2.22191 12.9536 2.25981 12.6791L2.31973 12.2865C2.38452 11.8994 2.5475 11.6007 2.80411 11.3987C2.99163 11.2508 3.20801 11.1267 3.44917 11.0287L3.71907 10.9313L4.74298 10.5849L5.44891 10.3559L5.61624 10.3073C5.83409 10.2503 6.0313 10.1751 6.20487 10.0829L6.3767 9.98115C6.54612 9.87805 6.67925 9.77636 6.77241 9.6789C6.85746 9.58991 6.91492 9.50581 6.94319 9.42896C6.97526 9.34162 6.99087 9.25539 6.99087 9.16546L6.9853 8.94079C6.98342 8.89771 6.98104 8.8514 6.97815 8.80123C6.96376 8.63813 6.91699 8.52096 6.83519 8.44301L6.63547 8.2599L6.43082 8.08704C6.337 8.00698 6.25709 7.89814 6.18655 7.75429L6.13476 7.64419L6.02745 7.38516L5.92292 7.06476L5.84817 7.02536L5.7709 6.97289C5.70398 6.91902 5.63448 6.84524 5.55842 6.74737C5.49935 6.67142 5.44888 6.57759 5.40309 6.45768L5.35802 6.32647C5.30391 6.14587 5.28624 5.97821 5.30549 5.82811C5.32115 5.68603 5.34944 5.56592 5.39191 5.46123C5.42515 5.36665 5.4742 5.27463 5.54098 5.1818C5.5366 4.84182 5.55632 4.51159 5.59969 4.1991C5.63488 3.90657 5.70313 3.58675 5.80255 3.24852C5.90448 2.9019 6.05354 2.58643 6.24559 2.31082C6.43208 2.04799 6.64119 1.82957 6.86814 1.66007C7.09339 1.4919 7.32564 1.35787 7.55851 1.26166C7.70777 1.20002 7.85953 1.14999 8.01768 1.1104L8.26468 1.05798C8.51471 1.01895 8.73617 1 8.94169 1ZM7.23215 7.44631C7.3346 7.53408 7.43595 7.62579 7.53853 7.72346C7.81712 7.98892 7.95322 8.32995 7.98933 8.74444L8.00212 9.04068C8.00317 9.08438 8.00369 9.12573 8.00369 9.16546C8.00369 9.37258 7.96724 9.57403 7.89517 9.77034C7.81407 9.99081 7.68165 10.1846 7.50899 10.3653C7.38846 10.4914 7.24533 10.6092 7.08664 10.7178L6.9312 10.8179C6.68578 10.979 6.4092 11.1084 6.10694 11.2064L5.77221 11.3039L5.38353 11.4277L4.49917 11.7235L3.95996 11.9072C3.75175 11.9769 3.57632 12.0695 3.43545 12.1807C3.39593 12.2118 3.36166 12.2663 3.33709 12.361L3.32056 12.4398L3.25947 12.8423L3.24514 12.9787C3.24269 13.017 3.24243 13.0501 3.24401 13.0838L3.26219 13.2584L3.28481 13.405L3.57529 13.4736C3.91299 13.5491 4.34958 13.6257 4.85015 13.6963L5.4793 13.7776C6.57162 13.9067 7.86392 14 9.07681 14C10.478 14 11.7787 13.8732 12.9432 13.6624L13.3048 13.5931L13.7779 13.4912L14.136 13.4035L14.3458 13.342C14.3639 13.231 14.3748 13.1232 14.3802 13.014L14.3833 12.867L14.3564 12.6734C14.3447 12.5571 14.3286 12.4604 14.3109 12.3882L14.2932 12.327L14.2574 12.2468L14.2083 12.1744L14.1514 12.116L14.0233 12.0321C13.9734 12.0025 13.9204 11.9741 13.8645 11.9472L12.7335 11.482L12.3721 11.3398L12.2243 11.2869L12.1972 11.279C11.8991 11.2048 11.6166 11.1152 11.3449 11.007C11.0865 10.9005 10.8624 10.7802 10.6773 10.6426L10.5459 10.5361C10.3237 10.3431 10.1493 10.1229 10.0338 9.87369C9.93094 9.65179 9.86829 9.41366 9.85448 9.17507C9.84281 8.96941 9.85574 8.76627 9.89234 8.58054C9.9189 8.42589 9.96479 8.27015 10.03 8.12543C10.1014 7.96647 10.1984 7.82548 10.344 7.67967C10.4094 7.61787 10.4716 7.56388 10.537 7.51482L10.6791 7.41512L10.7802 7.32946L10.844 7.20372L10.9091 7.05616L10.9516 6.92476L10.9889 6.79457L11.1087 6.34802L11.5089 6.158L11.5231 6.131L11.5415 6.08578L11.5604 6.01401L11.5763 5.92359L11.5818 5.83411L11.5768 5.811L11.3273 5.57372L11.3298 5.14609C11.3315 4.85568 11.3109 4.57092 11.2666 4.28375C11.2315 4.03101 11.1655 3.75759 11.0627 3.44591C10.9775 3.18745 10.8494 2.94836 10.6848 2.73818C10.6277 2.66634 10.5456 2.58881 10.4284 2.50203C10.3272 2.42484 10.1916 2.34398 10.0155 2.25852C9.85832 2.18325 9.68658 2.12101 9.48651 2.06788C9.31821 2.0232 9.13479 2 8.94169 2C8.84194 2 8.73349 2.00644 8.61568 2.01955L8.43185 2.04427C8.26308 2.07428 8.10447 2.12015 7.94948 2.18415C7.79726 2.24704 7.63834 2.33875 7.47916 2.45759C7.33913 2.56217 7.2027 2.70476 7.08001 2.87762C6.95055 3.0634 6.8475 3.28152 6.77524 3.52723C6.69065 3.81501 6.63376 4.08156 6.60313 4.33485C6.57886 4.50971 6.56332 4.69274 6.55677 4.88162L6.55372 5.16907L6.55793 5.49509L6.36669 5.76091L6.34598 5.79776L6.33213 5.83302C6.32916 5.84034 6.32577 5.85209 6.32209 5.87122L6.31029 5.95371L6.31641 5.99472L6.36196 6.13862L6.39215 6.177L6.75487 6.3444L6.97665 7.03688L7.0189 7.14231L7.10648 7.33995L7.08279 7.32178L7.23215 7.44631Z" fill="#444E63"/>
<path d="M16.4102 0H0.205078V16H16.4102V0Z" fill="white" fill-opacity="0.01"/>
</g>
<defs>
<clipPath id="clip0_3682_14873">
<rect width="16.2051" height="16" fill="white" transform="translate(0.205078)"/>
</clipPath>
</defs>
</svg>
