<svg width="16" height="16" viewBox="0 0 16 16" fill="none" xmlns="http://www.w3.org/2000/svg">
<g clip-path="url(#clip0_193_1543)">
<path d="M8.00068 1C8.94139 1 9.85476 1.17225 10.7148 1.50991C11.5475 1.838 12.2954 2.30827 12.9381 2.90704C13.5848 3.50854 14.0921 4.20984 14.4462 4.99043C14.814 5.80246 15.0014 6.66507 15 7.55502C15 8.44498 14.814 9.30622 14.4449 10.1182C14.0894 10.9002 13.5821 11.6001 12.9367 12.2016C12.2941 12.8004 11.5461 13.2707 10.7134 13.5988C9.85339 13.9364 8.94002 14.1087 7.99931 14.1087C7.25139 14.1087 6.51713 13.9993 5.81433 13.7833L3.7866 14.9357C3.71139 14.9781 3.62662 15 3.54321 15C3.46801 15 3.39144 14.9822 3.32171 14.9467C3.17404 14.8729 3.07422 14.7293 3.05508 14.5653L2.73923 11.8776C1.61666 10.6801 1 9.15174 1 7.55366C1 6.66507 1.18732 5.80246 1.55513 4.99043C1.91063 4.20848 2.41791 3.50854 3.06329 2.90704C3.70593 2.30827 4.45385 1.838 5.28655 1.50991C6.14659 1.17225 7.05996 1 8.00068 1ZM8.00068 1.98428C7.18439 1.98428 6.39271 2.13329 5.64889 2.42584C4.93104 2.70882 4.28704 3.11347 3.73464 3.62748C3.18361 4.14012 2.7529 4.73616 2.45209 5.39781C2.14171 6.08134 1.98447 6.80588 1.98447 7.55366C1.98447 8.94668 2.5437 10.2809 3.55825 11.309C3.63482 11.3869 3.68405 11.488 3.69635 11.5974L3.94521 13.7122L5.51626 12.8195C5.63795 12.7498 5.78425 12.7362 5.91825 12.7813C6.58277 13.0082 7.2842 13.123 7.99931 13.123C8.8156 13.123 9.60728 12.9754 10.3525 12.6815C11.0703 12.3985 11.7143 11.9938 12.2667 11.4798C12.8177 10.9672 13.2484 10.3712 13.5493 9.7095C13.8596 9.02597 14.0169 8.30144 14.0182 7.55366C14.0182 6.80588 13.861 6.08134 13.5506 5.39781C13.2498 4.73479 12.8177 4.14012 12.2681 3.62748C11.7157 3.1121 11.0717 2.70882 10.3538 2.42584C9.60864 2.13329 8.81697 1.98428 8.00068 1.98428ZM5.37517 6.25C5.8589 6.25 6.25034 6.64136 6.25034 7.125C6.25034 7.60864 5.8589 8 5.37517 8C4.89303 8 4.5 7.60864 4.5 7.125C4.5 6.64136 4.89144 6.25 5.37517 6.25ZM10.6262 6.25C11.1083 6.25 11.5014 6.64136 11.5014 7.125C11.4998 7.60864 11.1083 8 10.6262 8C10.1441 8 9.75102 7.60864 9.75102 7.125C9.75102 6.64136 10.1425 6.25 10.6262 6.25ZM8.00068 6.25C8.48282 6.25 8.87585 6.64136 8.87585 7.125C8.87585 7.60864 8.48282 8 8.00068 8C7.51854 8 7.12551 7.60864 7.12551 7.125C7.12551 6.64136 7.51695 6.25 8.00068 6.25Z" fill="#444E63"/>
<path d="M16 0H0V16H16V0Z" fill="white" fill-opacity="0.01"/>
</g>
<defs>
<clipPath id="clip0_193_1543">
<rect width="16" height="16" fill="white"/>
</clipPath>
</defs>
</svg>
