<svg width="16" height="16" viewBox="0 0 16 16" fill="none" xmlns="http://www.w3.org/2000/svg">
<g clip-path="url(#clip0_3682_14894)">
<path d="M12.9999 1C13.5127 1 13.9354 1.38604 13.9932 1.88338L13.9999 2V13C13.9999 13.5128 13.6139 13.9355 13.1165 13.9933L12.9999 14H4.9999C4.48706 14 4.06439 13.614 4.00662 13.1166L3.9999 13V10.5C3.9999 10.2239 4.22375 10 4.4999 10C4.74536 10 4.9495 10.1769 4.99184 10.4101L4.9999 10.5V13H12.9999V2H4.9999V4.5C4.9999 4.77614 4.77604 5 4.4999 5C4.25444 5 4.05029 4.82312 4.00795 4.58988L3.9999 4.5V2C3.9999 1.48716 4.38594 1.06449 4.88328 1.00673L4.9999 1H12.9999ZM2.90837 5.79085L2.85345 5.85355L1.7059 7H9.4999C9.74536 7 9.9495 7.17688 9.99184 7.41012L9.9999 7.5C9.9999 7.74546 9.82302 7.94961 9.58977 7.99194L9.4999 8H1.7069L2.85345 9.14645C3.02702 9.32001 3.0463 9.58944 2.91131 9.78431L2.85345 9.85355C2.67988 10.0271 2.41046 10.0464 2.21559 9.91141L2.14634 9.85355L0.146343 7.85355L0.0930557 7.79087L0.045096 7.70807L0.0248199 7.65604L0.00643115 7.58297L-0.000976562 7.50773L0.00315795 7.43168C0.0132507 7.35567 0.0414986 7.28048 0.0904272 7.2122L0.146343 7.14645L2.14634 5.14645C2.59725 4.69554 3.26381 5.32289 2.90837 5.79085Z" fill="#444E63"/>
<path d="M16 0H0V16H16V0Z" fill="white" fill-opacity="0.01"/>
</g>
<defs>
<clipPath id="clip0_3682_14894">
<rect width="16" height="16" fill="white"/>
</clipPath>
</defs>
</svg>
