<svg width="16" height="16" viewBox="0 0 16 16" fill="none" xmlns="http://www.w3.org/2000/svg">
<path fill-rule="evenodd" clip-rule="evenodd" d="M8.41167 13.8478L13.8074 9.13259C13.9894 8.97351 14.0444 8.7327 13.9635 8.52444L11.9635 3.37318C11.8807 3.15969 11.6611 3 11.3958 3H4.60424C4.33886 3 4.11935 3.15969 4.03646 3.37318L2.03649 8.52444C1.95563 8.7327 2.01056 8.97351 2.1926 9.13259L7.58833 13.8478C7.82048 14.0507 8.17952 14.0507 8.41167 13.8478ZM6.9303 14.6008C7.53933 15.1331 8.46067 15.1331 9.0697 14.6008L14.4654 9.88559C14.96 9.45343 15.131 8.7685 14.8957 8.16251L12.8958 3.01126C12.6594 2.40256 12.0623 2 11.3958 2H4.60424C3.93768 2 3.34058 2.40256 3.10425 3.01126L1.10428 8.16251C0.869006 8.7685 1.04005 9.45343 1.53457 9.88559L6.9303 14.6008ZM9.32542 5.37964C9.53508 5.19993 9.55936 4.88428 9.37965 4.67461C9.19994 4.46495 8.88429 4.44067 8.67463 4.62038L5.17463 7.62038C5.01576 7.75655 4.95849 7.97724 5.03108 8.17348C5.10368 8.36972 5.29079 8.50001 5.50002 8.50001H9.1484L6.67463 10.6204C6.46497 10.8001 6.44068 11.1157 6.6204 11.3254C6.80011 11.5351 7.11576 11.5593 7.32542 11.3796L10.8254 8.37964C10.9843 8.24347 11.0416 8.02278 10.969 7.82654C10.8964 7.63029 10.7093 7.50001 10.5 7.50001H6.85165L9.32542 5.37964Z" fill="#444E63"/>
</svg>
