<svg width="16" height="16" viewBox="0 0 16 16" fill="none" xmlns="http://www.w3.org/2000/svg">
<path fill-rule="evenodd" clip-rule="evenodd" d="M15 8C15 4.13401 11.866 1 8 1C4.13401 1 1 4.13401 1 8C1 11.866 4.13401 15 8 15C11.866 15 15 11.866 15 8ZM2 8C2 4.68629 4.68629 2 8 2C11.3137 2 14 4.68629 14 8C14 11.3137 11.3137 14 8 14C4.68629 14 2 11.3137 2 8ZM7.66141 4.18877L7.6533 4.1967L4.82487 7.02513C4.62961 7.22039 4.62961 7.53697 4.82487 7.73223L4.89412 7.79009C5.08899 7.92509 5.35841 7.9058 5.53198 7.73223L7.50622 5.75799L7.50685 11.4497C7.50685 11.7259 7.73071 11.9497 8.00685 11.9497L8.09673 11.9417C8.32998 11.8994 8.50685 11.6952 8.50685 11.4497L8.50607 5.75658L10.4817 7.73223C10.677 7.9275 10.9936 7.9275 11.1888 7.73223C11.3841 7.53697 11.3841 7.22039 11.1888 7.02513L8.36041 4.1967C8.33488 4.17118 8.30729 4.14899 8.27833 4.1303C8.26504 4.12169 8.25131 4.11369 8.23704 4.10624C8.22443 4.0997 8.21161 4.09373 8.19904 4.08852C8.18512 4.08272 8.17089 4.07753 8.15594 4.07289C8.14309 4.06889 8.1301 4.06542 8.11729 4.06249C8.10341 4.05936 8.08931 4.05681 8.07493 4.05488C8.058 4.05257 8.04097 4.05112 8.02413 4.05055L8.00686 4.05025C7.96891 4.05025 7.93194 4.05448 7.89669 4.06247C7.88361 4.06542 7.87062 4.06889 7.85735 4.07299C7.84282 4.07753 7.82859 4.08272 7.81511 4.08834C7.8021 4.09373 7.78927 4.0997 7.77652 4.10635C7.7624 4.11369 7.74867 4.12169 7.73555 4.13014C7.72673 4.13584 7.71805 4.14186 7.70943 4.14829C7.69263 4.16074 7.67664 4.17422 7.66141 4.18877Z" fill="#444E63"/>
</svg>
